<svg width="44" height="45" fill="none" xmlns="http://www.w3.org/2000/svg"><g filter="url(#Moon__a)" fill="#FFD914"><path fill-rule="evenodd" clip-rule="evenodd" d="M16.303 10.813a10.26 10.26 0 0 0-1.123 9.498l.214.558c2.033 5.296 7.973 7.94 13.269 5.908.436-.168.853-.361 1.252-.579a10.222 10.222 0 0 1-4.784 3.77c-5.296 2.033-11.236-.612-13.269-5.907l-.214-.558c-1.866-4.86.209-10.263 4.655-12.69Z"/><path d="m22 16 .674 2.073h2.18l-1.764 1.281.673 2.073L22 20.146l-1.763 1.281.673-2.073-1.763-1.281h2.18L22 16Z"/></g><defs><filter id="Moon__a" x=".963" y=".813" width="42.952" height="43.841" filterUnits="userSpaceOnUse" color-interpolation-filters="sRGB"><feFlood flood-opacity="0" result="BackgroundImageFix"/><feColorMatrix in="SourceAlpha" values="0 0 0 0 0 0 0 0 0 0 0 0 0 0 0 0 0 0 127 0" result="hardAlpha"/><feOffset dx="2" dy="2"/><feGaussianBlur stdDeviation="6"/><feComposite in2="hardAlpha" operator="out"/><feColorMatrix values="0 0 0 0 1 0 0 0 0 1 0 0 0 0 1 0 0 0 0.25 0"/><feBlend in2="BackgroundImageFix" result="effect1_dropShadow_29_157"/><feBlend in="SourceGraphic" in2="effect1_dropShadow_29_157" result="shape"/></filter></defs></svg>